<svg width="51" height="37" viewBox="0 0 51 37" fill="none" xmlns="http://www.w3.org/2000/svg">
<path d="M19.3936 15.3482C20.084 15.3482 20.6436 14.7886 20.6436 14.0982C20.6436 13.4079 20.084 12.8482 19.3936 12.8482V15.3482ZM7.69892 12.8482C7.00856 12.8482 6.44892 13.4079 6.44892 14.0982C6.44892 14.7886 7.00856 15.3482 7.69892 15.3482V12.8482ZM43.3501 15.3482C44.0405 15.3482 44.6001 14.7886 44.6001 14.0982C44.6001 13.4079 44.0405 12.8482 43.3501 12.8482V15.3482ZM31.0883 12.8482C30.398 12.8482 29.8383 13.4079 29.8383 14.0982C29.8383 14.7886 30.398 15.3482 31.0883 15.3482V12.8482ZM22.3468 10.2V11.45H28.1153V10.2V8.95001H22.3468V10.2ZM30.0381 12.1228H28.7881V17.8913H30.0381H31.2881V12.1228H30.0381ZM28.1153 19.8142V18.5642H22.3468V19.8142V21.0642H28.1153V19.8142ZM20.424 17.8913H21.674V12.1228H20.424H19.174V17.8913H20.424ZM22.3468 19.8142V18.5642C21.9752 18.5642 21.674 18.2629 21.674 17.8913H20.424H19.174C19.174 19.6436 20.5945 21.0642 22.3468 21.0642V19.8142ZM30.0381 17.8913H28.7881C28.7881 18.2629 28.4869 18.5642 28.1153 18.5642V19.8142V21.0642C29.8676 21.0642 31.2881 19.6436 31.2881 17.8913H30.0381ZM28.1153 10.2V11.45C28.4869 11.45 28.7881 11.7512 28.7881 12.1228H30.0381H31.2881C31.2881 10.3705 29.8676 8.95001 28.1153 8.95001V10.2ZM22.3468 10.2V8.95001C20.5945 8.95001 19.174 10.3705 19.174 12.1228H20.424H21.674C21.674 11.7513 21.9752 11.45 22.3468 11.45V10.2ZM7.02293 30.9906V32.2406H12.7914V30.9906V29.7406H7.02293V30.9906ZM14.7142 32.9134H13.4642V38.6819H14.7142H15.9642V32.9134H14.7142ZM12.7914 40.6047V39.3547H7.02293V40.6047V41.8547H12.7914V40.6047ZM5.1001 38.6819H6.3501V32.9134H5.1001H3.8501V38.6819H5.1001ZM7.02293 40.6047V39.3547C6.65134 39.3547 6.3501 39.0535 6.3501 38.6819H5.1001H3.8501C3.8501 40.4342 5.27062 41.8547 7.02293 41.8547V40.6047ZM14.7142 38.6819H13.4642C13.4642 39.0535 13.163 39.3547 12.7914 39.3547V40.6047V41.8547C14.5437 41.8547 15.9642 40.4342 15.9642 38.6819H14.7142ZM12.7914 30.9906V32.2406C13.163 32.2406 13.4642 32.5418 13.4642 32.9134H14.7142H15.9642C15.9642 31.1611 14.5437 29.7406 12.7914 29.7406V30.9906ZM7.02293 30.9906V29.7406C5.27062 29.7406 3.8501 31.1611 3.8501 32.9134H5.1001H6.3501C6.3501 32.5418 6.65133 32.2406 7.02293 32.2406V30.9906ZM38.2088 30.9906V32.2406H43.9773V30.9906V29.7406H38.2088V30.9906ZM45.9001 32.9134H44.6501V38.6819H45.9001H47.1501V32.9134H45.9001ZM43.9773 40.6047V39.3547H38.2088V40.6047V41.8547H43.9773V40.6047ZM36.286 38.6819H37.536V32.9134H36.286H35.036V38.6819H36.286ZM38.2088 40.6047V39.3547C37.8372 39.3547 37.536 39.0535 37.536 38.6819H36.286H35.036C35.036 40.4342 36.4565 41.8547 38.2088 41.8547V40.6047ZM45.9001 38.6819H44.6501C44.6501 39.0535 44.3489 39.3547 43.9773 39.3547V40.6047V41.8547C45.7296 41.8547 47.1501 40.4342 47.1501 38.6819H45.9001ZM43.9773 30.9906V32.2406C44.3489 32.2406 44.6501 32.5418 44.6501 32.9134H45.9001H47.1501C47.1501 31.1611 45.7296 29.7406 43.9773 29.7406V30.9906ZM38.2088 30.9906V29.7406C36.4565 29.7406 35.036 31.1611 35.036 32.9134H36.286H37.536C37.536 32.5418 37.8372 32.2406 38.2088 32.2406V30.9906ZM19.3936 14.0982V12.8482H7.69892V14.0982V15.3482H19.3936V14.0982ZM43.3501 14.0982V12.8482H31.0883V14.0982V15.3482H43.3501V14.0982ZM10.2977 28.3918H9.04774V30.9906H10.2977H11.5477V28.3918H10.2977ZM41.4836 28.3918H40.2336V30.9906H41.4836H42.7336V28.3918H41.4836ZM10.2977 28.3918H11.5477C11.5477 23.0844 14.4297 18.4487 18.7201 15.9669L18.0942 14.8849L17.4683 13.8029C12.4372 16.7132 9.04774 22.1559 9.04774 28.3918H10.2977ZM33.6871 14.8849L33.0612 15.9669C37.3516 18.4487 40.2336 23.0844 40.2336 28.3918H41.4836H42.7336C42.7336 22.1559 39.3441 16.7132 34.313 13.8029L33.6871 14.8849Z" fill="#CCCCCC"/>
</svg>
