<svg width="31" height="25" viewBox="0 0 31 25" fill="none" xmlns="http://www.w3.org/2000/svg">
<path d="M25.0564 0.0423183C27.8307 -0.323292 30.1558 1.72203 30.3713 4.55603C30.7708 9.81037 30.0887 15.6204 30.3388 20.9312C29.3201 26.6075 21.5378 26.2847 21.1118 20.3378C20.7296 14.9989 21.3009 9.02379 21.246 3.64932C21.6395 1.85052 23.2722 0.278398 25.0564 0.0433629V0.0423183Z" fill="white"/>
<path d="M4.82854 0.151977C5.92549 0.0464723 6.85163 0.35254 7.78998 0.912445C11.3705 3.04656 14.7508 6.54179 18.3629 8.74694C22.9642 12.5744 18.3843 20.0976 12.5448 16.1876C9.33221 14.0368 5.72114 11.2153 2.62348 8.8326C-0.89914 6.12604 0.523123 0.565638 4.82854 0.151977Z" fill="white"/>
<path d="M8.47423 23.2741C4.4494 27.7889 -2.3 21.4868 1.74822 16.9376C5.78931 12.3978 12.5143 18.7406 8.47423 23.2741Z" fill="white"/>
</svg>
