<svg width="1688" height="901" viewBox="0 0 1688 901" fill="none" xmlns="http://www.w3.org/2000/svg">
<path d="M1596.5 12.5C1564.02 21.6311 1517.03 37.7751 1479.65 57M1479.65 57C1439.94 77.4273 1411.08 101.333 1422 124C1448.5 179 1485 181 1495 152.5C1505 124 1537.3 69 1479.65 57ZM1479.65 57C1451.6 57 1393.1 57 1383.5 57C1373.9 57 1333.5 101.667 1314.5 124C1314.5 139.667 1314.5 174.2 1314.5 187C1314.5 203 1314.5 270.5 1314.5 290.5C1314.5 310.5 1347.5 351 1365.5 377.5C1383.5 404 1434 463.5 1422 497.5C1410 531.5 1387.5 534 1314.5 619C1241.5 704 1181 785 1187 811.5C1193 838 1178.5 882.5 1067 878.5C955.5 874.5 776.5 840 710 840C643.5 840 606.5 915.5 483 897C359.5 878.5 207 836 199 799.5C191 763 164.5 550 124 548C83.4999 546 -36.5001 605 12.4999 653.5C61.4999 702 59.5 736 138.5 708C217.5 680 266 625.5 262 574.5C258 523.5 235.5 479 187 440.5C138.5 402 35 333 37 290.5C39 248 60.9997 193 124 152.5C187 112 294.5 69 323 57C351.5 45 489 12.5 517.5 12.5C546 12.5 735 12.5 751 12.5C767 12.5 798 69.5 858.5 81.5C919 93.5 1002 39 1028.5 33C1055 27 1217 12.5 1241.5 12.5C1266 12.5 1282 33 1314.5 33C1340.5 33 1464.67 11.3333 1523.5 0.5C1574 0.5 1677.5 0.5 1687.5 0.5" stroke="black"/>
</svg>
