<svg width="28" height="28" viewBox="0 0 28 28" fill="none" xmlns="http://www.w3.org/2000/svg">
<path d="M7.08929 13.3345C6.85843 13.9851 7.1987 14.6997 7.84931 14.9306C8.49992 15.1614 9.2145 14.8212 9.44536 14.1706L7.08929 13.3345ZM10.6397 7.06679L9.46165 6.64878L9.46165 6.64878L10.6397 7.06679ZM12.2397 5.68148L11.9945 4.45575L11.9945 4.45575L12.2397 5.68148ZM26.2061 2.88818L27.4363 3.11002C27.5097 2.70284 27.3769 2.28572 27.0816 1.99595C26.7863 1.70618 26.3667 1.58132 25.961 1.66246L26.2061 2.88818ZM23.6574 17.022L22.4273 16.8002L23.6574 17.022ZM22.187 18.6879L21.8142 17.4948L21.8142 17.4948L22.187 18.6879ZM14.9689 19.6339C14.31 19.8398 13.9428 20.5409 14.1487 21.1999C14.3546 21.8588 15.0557 22.226 15.7146 22.0201L14.9689 19.6339ZM26.8374 4.02473C27.3255 3.53657 27.3255 2.74512 26.8374 2.25696C26.3492 1.76881 25.5578 1.76881 25.0696 2.25696L26.8374 4.02473ZM19.0058 8.32079C18.5176 8.80894 18.5176 9.6004 19.0058 10.0886C19.4939 10.5767 20.2854 10.5767 20.7735 10.0886L19.0058 8.32079ZM4.22477 18.8057L3.34089 19.6896H3.34089L4.22477 18.8057ZM4.22477 16.7845L5.10866 17.6683H5.10866L4.22477 16.7845ZM12.3099 24.8696L13.1938 25.7534V25.7534L12.3099 24.8696ZM10.2886 24.8696L11.1725 23.9857L10.2886 24.8696ZM14.8365 20.3217L13.9526 21.2056L14.8365 20.3217ZM14.8365 22.343L13.9526 21.4591L14.8365 22.343ZM8.77264 14.2579L9.65653 13.374L8.77264 14.2579ZM6.75137 14.2579L5.86748 13.374L5.86748 13.374L6.75137 14.2579ZM8.26732 13.7525L9.44536 14.1706L11.8177 7.48481L10.6397 7.06679L9.46165 6.64878L7.08929 13.3345L8.26732 13.7525ZM12.2397 5.68148L12.4848 6.9072L26.4513 4.11391L26.2061 2.88818L25.961 1.66246L11.9945 4.45575L12.2397 5.68148ZM26.2061 2.88818L24.976 2.66635L22.4273 16.8002L23.6574 17.022L24.8876 17.2439L27.4363 3.11002L26.2061 2.88818ZM22.187 18.6879L21.8142 17.4948L14.9689 19.6339L15.3418 20.827L15.7146 22.0201L22.5599 19.881L22.187 18.6879ZM23.6574 17.022L22.4273 16.8002C22.3682 17.1278 22.1319 17.3955 21.8142 17.4948L22.187 18.6879L22.5599 19.881C23.7663 19.504 24.6633 18.4878 24.8876 17.2439L23.6574 17.022ZM10.6397 7.06679L11.8177 7.48481C11.9229 7.18828 12.1763 6.96891 12.4848 6.9072L12.2397 5.68148L11.9945 4.45575C10.8231 4.69003 9.86115 5.52294 9.46165 6.64878L10.6397 7.06679ZM25.9535 3.14084L25.0696 2.25696L19.0058 8.32079L19.8897 9.20467L20.7735 10.0886L26.8374 4.02473L25.9535 3.14084ZM8.77264 14.2579L7.88876 15.1417L13.9526 21.2056L14.8365 20.3217L15.7204 19.4378L9.65653 13.374L8.77264 14.2579ZM14.8365 22.343L13.9526 21.4591L11.426 23.9857L12.3099 24.8696L13.1938 25.7534L15.7204 23.2268L14.8365 22.343ZM10.2886 24.8696L11.1725 23.9857L5.10866 17.9218L4.22477 18.8057L3.34089 19.6896L9.40472 25.7534L10.2886 24.8696ZM4.22477 16.7845L5.10866 17.6683L7.63525 15.1417L6.75137 14.2579L5.86748 13.374L3.34089 15.9006L4.22477 16.7845ZM4.22477 18.8057L5.10866 17.9218C5.03865 17.8518 5.03865 17.7383 5.10866 17.6683L4.22477 16.7845L3.34089 15.9006C2.29457 16.9469 2.29457 18.6433 3.34089 19.6896L4.22477 18.8057ZM12.3099 24.8696L11.426 23.9857C11.356 24.0557 11.2425 24.0557 11.1725 23.9857L10.2886 24.8696L9.40472 25.7534C10.451 26.7998 12.1474 26.7998 13.1938 25.7534L12.3099 24.8696ZM14.8365 20.3217L13.9526 21.2056C14.0226 21.2756 14.0226 21.3891 13.9526 21.4591L14.8365 22.343L15.7204 23.2268C16.7667 22.1805 16.7667 20.4841 15.7204 19.4378L14.8365 20.3217ZM8.77264 14.2579L9.65653 13.374C8.61021 12.3277 6.9138 12.3277 5.86748 13.374L6.75137 14.2579L7.63525 15.1417C7.70526 15.0717 7.81876 15.0717 7.88876 15.1417L8.77264 14.2579ZM19.3843 13.7525L18.5005 12.8687C17.8723 13.4968 16.8538 13.4968 16.2257 12.8687L15.3418 13.7525L14.4579 14.6364C16.0624 16.2409 18.6637 16.2409 20.2682 14.6364L19.3843 13.7525ZM15.3418 13.7525L16.2257 12.8687C15.5975 12.2405 15.5975 11.222 16.2257 10.5939L15.3418 9.70999L14.4579 8.82611C12.8534 10.4306 12.8534 13.0319 14.4579 14.6364L15.3418 13.7525ZM15.3418 9.70999L16.2257 10.5939C16.8538 9.96571 17.8723 9.96571 18.5005 10.5939L19.3843 9.70999L20.2682 8.82611C18.6637 7.22163 16.0624 7.22163 14.4579 8.82611L15.3418 9.70999ZM19.3843 9.70999L18.5005 10.5939C19.1286 11.222 19.1286 12.2405 18.5005 12.8687L19.3843 13.7525L20.2682 14.6364C21.8727 13.0319 21.8727 10.4306 20.2682 8.82611L19.3843 9.70999Z" fill="#CCCCCC"/>
</svg>
