<svg width="1910" height="1066" viewBox="0 0 1910 1066" fill="none" xmlns="http://www.w3.org/2000/svg">
<g filter="url(#filter0_f_373_1021)">
<path d="M954.562 -220C866.892 -220 782.812 -185.173 720.82 -123.18C658.827 -61.188 624 22.8919 624 110.562C624 198.233 658.827 282.313 720.82 344.305C782.812 406.298 866.892 441.125 954.562 441.125C1042.23 441.125 1126.31 406.298 1188.31 344.305C1250.3 282.313 1285.12 198.233 1285.12 110.562C1285.12 22.8919 1250.3 -61.188 1188.31 -123.18C1126.31 -185.173 1042.23 -220 954.562 -220ZM1138.07 129.59C1134 134.941 1128.36 138.887 1121.94 140.877L1070.02 158.292C1054.15 163.715 1039.71 172.644 1027.77 184.415C1015.91 196.285 1006.97 210.747 1001.65 226.663L983.91 278.585C981.524 284.44 977.629 289.559 972.623 293.42C967.268 297.299 960.851 299.438 954.24 299.548C947.595 299.645 941.115 297.485 935.858 293.42C930.494 289.57 926.442 284.167 924.248 277.94L907.155 226.017C901.843 210.047 892.862 195.544 880.933 183.67C869.003 171.797 854.458 162.885 838.462 157.647L786.863 140.555C780.636 138.361 775.232 134.308 771.383 128.945C767.362 123.664 765.207 117.199 765.255 110.562C765.298 103.841 767.441 97.3016 771.383 91.8575C775.086 86.6298 780.416 82.7744 786.54 80.8925L838.462 63.4775C854.513 58.0421 869.16 49.1212 881.355 37.355C893.287 25.2935 902.221 10.5875 907.478 -5.53751L924.892 -56.4925C926.825 -62.5943 930.53 -67.9829 935.535 -71.9725C940.679 -76.3159 947.185 -78.7132 953.917 -78.745C960.316 -78.855 966.603 -77.0588 971.978 -73.585C977.653 -70.0568 981.971 -64.7159 984.233 -58.4275L1001.65 -5.85999C1007.07 10.3618 1016.1 25.1322 1028.09 37.355C1040.21 49.056 1054.74 57.9709 1070.66 63.4775L1122.58 81.5375C1128.76 83.5037 1134.09 87.4769 1137.74 92.825C1141.51 98.2173 1143.53 104.631 1143.55 111.208C1143.52 117.722 1141.61 124.107 1138.07 129.59Z" fill="white"/>
</g>
<defs>
<filter id="filter0_f_373_1021" x="0" y="-844" width="1909.12" height="1909.12" filterUnits="userSpaceOnUse" color-interpolation-filters="sRGB">
<feFlood flood-opacity="0" result="BackgroundImageFix"/>
<feBlend mode="normal" in="SourceGraphic" in2="BackgroundImageFix" result="shape"/>
<feGaussianBlur stdDeviation="312" result="effect1_foregroundBlur_373_1021"/>
</filter>
</defs>
</svg>
